<mxfile host="Electron" modified="2024-06-27T12:29:41.242Z" agent="Mozilla/5.0 (Windows NT 10.0; Win64; x64) AppleWebKit/537.36 (KHTML, like Gecko) draw.io/24.6.1 Chrome/124.0.6367.207 Electron/30.0.6 Safari/537.36" etag="nbbo49MFul2M53S9EJur" version="24.6.1" type="device">
  <diagram name="第 1 页" id="FAxyJCZb2OYBetN2Dcmv">
    <mxGraphModel dx="1050" dy="621" grid="1" gridSize="10" guides="1" tooltips="1" connect="1" arrows="1" fold="1" page="1" pageScale="1" pageWidth="827" pageHeight="1169" math="0" shadow="0">
      <root>
        <mxCell id="0" />
        <mxCell id="1" parent="0" />
        <mxCell id="2IG1ggF4Ktj4NxFq5ozq-47" value="" style="group" parent="1" vertex="1" connectable="0">
          <mxGeometry x="35" y="90" width="205" height="190" as="geometry" />
        </mxCell>
        <mxCell id="2IG1ggF4Ktj4NxFq5ozq-27" value="阴" style="ellipse;whiteSpace=wrap;html=1;aspect=fixed;fontSize=16;fillColor=#ffe6cc;strokeColor=#d79b00;" parent="2IG1ggF4Ktj4NxFq5ozq-47" vertex="1">
          <mxGeometry x="60" y="60" width="100" height="100" as="geometry" />
        </mxCell>
        <mxCell id="2IG1ggF4Ktj4NxFq5ozq-28" value="阳" style="text;html=1;align=center;verticalAlign=middle;whiteSpace=wrap;rounded=0;fontSize=16;" parent="2IG1ggF4Ktj4NxFq5ozq-47" vertex="1">
          <mxGeometry x="80" y="20" width="60" height="30" as="geometry" />
        </mxCell>
        <mxCell id="2IG1ggF4Ktj4NxFq5ozq-29" value="" style="shape=flexArrow;endArrow=classic;html=1;rounded=0;endWidth=8;endSize=5.15;" parent="2IG1ggF4Ktj4NxFq5ozq-47" edge="1">
          <mxGeometry width="50" height="50" relative="1" as="geometry">
            <mxPoint x="130" y="120" as="sourcePoint" />
            <mxPoint x="129" y="63" as="targetPoint" />
          </mxGeometry>
        </mxCell>
        <mxCell id="2IG1ggF4Ktj4NxFq5ozq-33" value="" style="verticalLabelPosition=bottom;verticalAlign=top;html=1;shape=mxgraph.basic.x;fillColor=#f8cecc;strokeColor=#b85450;" parent="2IG1ggF4Ktj4NxFq5ozq-47" vertex="1">
          <mxGeometry x="125" y="50" width="10" height="13" as="geometry" />
        </mxCell>
        <mxCell id="2IG1ggF4Ktj4NxFq5ozq-35" value="表阳盛" style="text;html=1;align=center;verticalAlign=middle;whiteSpace=wrap;rounded=0;fontSize=15;fontStyle=1;fontColor=#FF9999;" parent="2IG1ggF4Ktj4NxFq5ozq-47" vertex="1">
          <mxGeometry width="80" height="30" as="geometry" />
        </mxCell>
        <mxCell id="2IG1ggF4Ktj4NxFq5ozq-36" value="表固住，不外出(阳虚则外热)" style="text;html=1;align=center;verticalAlign=middle;whiteSpace=wrap;rounded=0;fontSize=14;" parent="2IG1ggF4Ktj4NxFq5ozq-47" vertex="1">
          <mxGeometry x="25" y="160" width="180" height="30" as="geometry" />
        </mxCell>
        <mxCell id="2IG1ggF4Ktj4NxFq5ozq-45" value="人神" style="ellipse;whiteSpace=wrap;html=1;aspect=fixed;" parent="2IG1ggF4Ktj4NxFq5ozq-47" vertex="1">
          <mxGeometry x="125" y="110" width="30" height="30" as="geometry" />
        </mxCell>
        <mxCell id="2IG1ggF4Ktj4NxFq5ozq-49" value="" style="group" parent="1" vertex="1" connectable="0">
          <mxGeometry x="323" y="91" width="220" height="190" as="geometry" />
        </mxCell>
        <mxCell id="2IG1ggF4Ktj4NxFq5ozq-39" value="阴" style="ellipse;whiteSpace=wrap;html=1;aspect=fixed;fontSize=16;container=0;fillColor=#ffe6cc;strokeColor=#d79b00;" parent="2IG1ggF4Ktj4NxFq5ozq-49" vertex="1">
          <mxGeometry x="60" y="60" width="100" height="100" as="geometry" />
        </mxCell>
        <mxCell id="2IG1ggF4Ktj4NxFq5ozq-40" value="阳" style="text;html=1;align=center;verticalAlign=middle;whiteSpace=wrap;rounded=0;fontSize=16;container=0;" parent="2IG1ggF4Ktj4NxFq5ozq-49" vertex="1">
          <mxGeometry x="80" y="20" width="60" height="30" as="geometry" />
        </mxCell>
        <mxCell id="2IG1ggF4Ktj4NxFq5ozq-41" value="" style="shape=flexArrow;endArrow=classic;html=1;rounded=0;endWidth=8;endSize=5.15;" parent="2IG1ggF4Ktj4NxFq5ozq-49" edge="1">
          <mxGeometry width="50" height="50" relative="1" as="geometry">
            <mxPoint x="130" y="74" as="sourcePoint" />
            <mxPoint x="129" y="17" as="targetPoint" />
          </mxGeometry>
        </mxCell>
        <mxCell id="2IG1ggF4Ktj4NxFq5ozq-43" value="表阳虚" style="text;html=1;align=center;verticalAlign=middle;whiteSpace=wrap;rounded=0;fontSize=15;fontStyle=1;fontColor=#FF9999;container=0;" parent="2IG1ggF4Ktj4NxFq5ozq-49" vertex="1">
          <mxGeometry width="80" height="30" as="geometry" />
        </mxCell>
        <mxCell id="2IG1ggF4Ktj4NxFq5ozq-44" value="表不固，精气外出(阳虚则外寒)" style="text;html=1;align=center;verticalAlign=middle;whiteSpace=wrap;rounded=0;fontSize=14;container=0;" parent="2IG1ggF4Ktj4NxFq5ozq-49" vertex="1">
          <mxGeometry x="25" y="160" width="195" height="30" as="geometry" />
        </mxCell>
        <mxCell id="2IG1ggF4Ktj4NxFq5ozq-46" value="人神" style="ellipse;whiteSpace=wrap;html=1;aspect=fixed;container=0;" parent="2IG1ggF4Ktj4NxFq5ozq-49" vertex="1">
          <mxGeometry x="121" y="100" width="30" height="30" as="geometry" />
        </mxCell>
        <mxCell id="2IG1ggF4Ktj4NxFq5ozq-50" value="" style="group" parent="1" vertex="1" connectable="0">
          <mxGeometry x="45" y="305" width="205" height="190" as="geometry" />
        </mxCell>
        <mxCell id="2IG1ggF4Ktj4NxFq5ozq-51" value="阴" style="ellipse;whiteSpace=wrap;html=1;aspect=fixed;fontSize=16;fillColor=#ffe6cc;strokeColor=#d79b00;" parent="2IG1ggF4Ktj4NxFq5ozq-50" vertex="1">
          <mxGeometry x="60" y="60" width="100" height="100" as="geometry" />
        </mxCell>
        <mxCell id="2IG1ggF4Ktj4NxFq5ozq-52" value="阳" style="text;html=1;align=center;verticalAlign=middle;whiteSpace=wrap;rounded=0;fontSize=16;" parent="2IG1ggF4Ktj4NxFq5ozq-50" vertex="1">
          <mxGeometry x="80" y="20" width="60" height="30" as="geometry" />
        </mxCell>
        <mxCell id="2IG1ggF4Ktj4NxFq5ozq-53" value="" style="shape=flexArrow;endArrow=classic;html=1;rounded=0;endWidth=8;endSize=5.15;" parent="2IG1ggF4Ktj4NxFq5ozq-50" edge="1">
          <mxGeometry width="50" height="50" relative="1" as="geometry">
            <mxPoint x="130" y="120" as="sourcePoint" />
            <mxPoint x="129" y="63" as="targetPoint" />
          </mxGeometry>
        </mxCell>
        <mxCell id="2IG1ggF4Ktj4NxFq5ozq-54" value="" style="verticalLabelPosition=bottom;verticalAlign=top;html=1;shape=mxgraph.basic.x;fillColor=#f8cecc;strokeColor=#b85450;" parent="2IG1ggF4Ktj4NxFq5ozq-50" vertex="1">
          <mxGeometry x="125" y="50" width="10" height="13" as="geometry" />
        </mxCell>
        <mxCell id="2IG1ggF4Ktj4NxFq5ozq-55" value="阴盛" style="text;html=1;align=center;verticalAlign=middle;whiteSpace=wrap;rounded=0;fontSize=15;fontStyle=1;fontColor=#FF9999;" parent="2IG1ggF4Ktj4NxFq5ozq-50" vertex="1">
          <mxGeometry width="80" height="30" as="geometry" />
        </mxCell>
        <mxCell id="2IG1ggF4Ktj4NxFq5ozq-56" value="表固住，不外出(阴盛则内热)" style="text;html=1;align=center;verticalAlign=middle;whiteSpace=wrap;rounded=0;fontSize=14;" parent="2IG1ggF4Ktj4NxFq5ozq-50" vertex="1">
          <mxGeometry x="25" y="160" width="180" height="30" as="geometry" />
        </mxCell>
        <mxCell id="2IG1ggF4Ktj4NxFq5ozq-57" value="人神" style="ellipse;whiteSpace=wrap;html=1;aspect=fixed;" parent="2IG1ggF4Ktj4NxFq5ozq-50" vertex="1">
          <mxGeometry x="155" y="50" width="30" height="30" as="geometry" />
        </mxCell>
        <mxCell id="2IG1ggF4Ktj4NxFq5ozq-58" value="" style="group" parent="1" vertex="1" connectable="0">
          <mxGeometry x="333" y="306" width="220" height="190" as="geometry" />
        </mxCell>
        <mxCell id="2IG1ggF4Ktj4NxFq5ozq-59" value="阴" style="ellipse;whiteSpace=wrap;html=1;aspect=fixed;fontSize=16;container=0;fillColor=#ffe6cc;strokeColor=#d79b00;" parent="2IG1ggF4Ktj4NxFq5ozq-58" vertex="1">
          <mxGeometry x="60" y="60" width="100" height="100" as="geometry" />
        </mxCell>
        <mxCell id="2IG1ggF4Ktj4NxFq5ozq-60" value="阳" style="text;html=1;align=center;verticalAlign=middle;whiteSpace=wrap;rounded=0;fontSize=16;container=0;" parent="2IG1ggF4Ktj4NxFq5ozq-58" vertex="1">
          <mxGeometry x="80" y="20" width="60" height="30" as="geometry" />
        </mxCell>
        <mxCell id="2IG1ggF4Ktj4NxFq5ozq-61" value="" style="shape=flexArrow;endArrow=classic;html=1;rounded=0;endWidth=8;endSize=5.15;" parent="2IG1ggF4Ktj4NxFq5ozq-58" edge="1">
          <mxGeometry width="50" height="50" relative="1" as="geometry">
            <mxPoint x="130" y="74" as="sourcePoint" />
            <mxPoint x="129" y="17" as="targetPoint" />
          </mxGeometry>
        </mxCell>
        <mxCell id="2IG1ggF4Ktj4NxFq5ozq-62" value="阴虚" style="text;html=1;align=center;verticalAlign=middle;whiteSpace=wrap;rounded=0;fontSize=15;fontStyle=1;fontColor=#FF9999;container=0;" parent="2IG1ggF4Ktj4NxFq5ozq-58" vertex="1">
          <mxGeometry width="80" height="30" as="geometry" />
        </mxCell>
        <mxCell id="2IG1ggF4Ktj4NxFq5ozq-63" value="表不固，精气外出(阴虚则内寒)" style="text;html=1;align=center;verticalAlign=middle;whiteSpace=wrap;rounded=0;fontSize=14;container=0;" parent="2IG1ggF4Ktj4NxFq5ozq-58" vertex="1">
          <mxGeometry x="25" y="160" width="195" height="30" as="geometry" />
        </mxCell>
        <mxCell id="2IG1ggF4Ktj4NxFq5ozq-64" value="人神" style="ellipse;whiteSpace=wrap;html=1;aspect=fixed;container=0;" parent="2IG1ggF4Ktj4NxFq5ozq-58" vertex="1">
          <mxGeometry x="143" y="44" width="30" height="30" as="geometry" />
        </mxCell>
      </root>
    </mxGraphModel>
  </diagram>
</mxfile>
